<?xml version="1.0" encoding="utf-8"?>
<!-- Generator: Adobe Illustrator 24.1.0, SVG Export Plug-In . SVG Version: 6.00 Build 0)  -->
<svg version="1.1" id="Layer_1" xmlns="http://www.w3.org/2000/svg" xmlns:xlink="http://www.w3.org/1999/xlink" x="0px" y="0px"
	 viewBox="0 0 100 100" style="enable-background:new 0 0 100 100;" xml:space="preserve">
<style type="text/css">
	.st0{fill:#FFFFFF;}
</style>
<g>
	<circle cx="50" cy="50" r="50"/>
</g>
<g>
	<path class="st0" d="M33.22,34.19c2.38,1.12,4.33,2.7,5.83,4.75c1.5,2.05,2.52,4.43,3.05,7.12H31.75c-0.57-1.4-1.45-2.49-2.65-3.27
		c-1.2-0.78-2.58-1.17-4.15-1.17c-2.17,0-3.92,0.81-5.25,2.42c-1.33,1.62-2,3.77-2,6.48s0.67,4.87,2,6.5
		c1.33,1.63,3.08,2.45,5.25,2.45c1.57,0,2.95-0.4,4.15-1.2c1.2-0.8,2.08-1.9,2.65-3.3H42.1c-0.8,4.13-2.69,7.42-5.67,9.88
		c-2.98,2.45-6.76,3.67-11.33,3.67c-3.5,0-6.56-0.76-9.17-2.28c-2.62-1.52-4.63-3.64-6.05-6.38c-1.42-2.73-2.12-5.85-2.12-9.35
		s0.71-6.62,2.12-9.35c1.42-2.73,3.43-4.86,6.05-6.38c2.62-1.52,5.67-2.27,9.17-2.27C28.13,32.52,30.84,33.07,33.22,34.19z"/>
	<path class="st0" d="M93.05,32.87l-8.25,35.4H72.6l-4.9-21.85l-4.9,21.85H50.6l-8.25-35.4h10.6l3.9,24.1l5.45-24.1h10.75l5.5,24.1
		l3.9-24.1H93.05z"/>
</g>
</svg>
