<svg width="32" height="32" viewBox="0 0 32 32" fill="none" xmlns="http://www.w3.org/2000/svg">
<path fill-rule="evenodd" clip-rule="evenodd" d="M7.48572 27.1143C4.15035 24.5553 2 20.5288 2 16C2 8.26801 8.26801 2 16 2C23.732 2 30 8.26801 30 16C30 20.5288 27.8497 24.5553 24.5143 27.1143C22.1552 28.9242 19.2032 30 16 30C12.7968 30 9.84483 28.9242 7.48572 27.1143ZM7.70598 25.3521L8.06202 22.5039C8.31223 20.5021 10.0138 19 12.0311 19H19.9689C21.9862 19 23.6878 20.5021 23.938 22.5039L24.294 25.3521C22.0873 27.3106 19.1825 28.5 16 28.5C12.8175 28.5 9.91271 27.3106 7.70598 25.3521ZM16 17C18.7614 17 21 14.7614 21 12C21 9.23858 18.7614 7 16 7C13.2386 7 11 9.23858 11 12C11 14.7614 13.2386 17 16 17Z" fill="black"/>
</svg>
