<svg width="32" height="32" viewBox="0 0 32 32" fill="none" xmlns="http://www.w3.org/2000/svg">
<path fill-rule="evenodd" clip-rule="evenodd" d="M30 16C30 23.732 23.732 30 16 30C8.26801 30 2 23.732 2 16C2 8.26801 8.26801 2 16 2C23.732 2 30 8.26801 30 16ZM11 22.619V11C11 9.89543 11.8954 9 13 9H19C20.1046 9 21 9.89543 21 11V22.619C21 23.0866 20.4153 23.2983 20.1159 22.9391L16.7682 18.9219C16.3684 18.4421 15.6316 18.4421 15.2318 18.9219L11.8841 22.9391C11.5847 23.2983 11 23.0866 11 22.619Z" fill="black"/>
</svg>
