<?xml version="1.0" encoding="utf-8"?>
<!-- Generator: Adobe Illustrator 24.1.2, SVG Export Plug-In . SVG Version: 6.00 Build 0)  -->
<svg version="1.1" id="Layer_1" xmlns="http://www.w3.org/2000/svg" xmlns:xlink="http://www.w3.org/1999/xlink" x="0px" y="0px"
	 viewBox="0 0 32 32" style="enable-background:new 0 0 32 32;" xml:space="preserve">
<style type="text/css">
	.st0{fill:none;stroke:#000000;stroke-width:2;stroke-linecap:round;stroke-linejoin:round;stroke-miterlimit:10;}
	.st1{fill:none;stroke:#000000;stroke-width:2;stroke-linecap:round;stroke-miterlimit:10;}
</style>
<circle class="st0" cx="-30.11" cy="16" r="6.8"/>
<line class="st0" x1="-30.11" y1="5.35" x2="-30.11" y2="2.87"/>
<line class="st0" x1="-37.64" y1="8.47" x2="-39.39" y2="6.72"/>
<line class="st1" x1="-40.76" y1="16" x2="-43.23" y2="16"/>
<line class="st0" x1="-37.64" y1="23.53" x2="-39.39" y2="25.28"/>
<line class="st0" x1="-30.11" y1="26.65" x2="-30.11" y2="29.13"/>
<line class="st0" x1="-22.57" y1="23.53" x2="-20.82" y2="25.28"/>
<line class="st0" x1="-19.45" y1="16" x2="-16.98" y2="16"/>
<line class="st0" x1="-22.57" y1="8.47" x2="-20.82" y2="6.72"/>
<path class="st0" d="M74.7,16.23c-0.37,6.35-5.53,11.5-11.88,11.87c-5.49,0.32-10.28-2.88-12.33-7.54c1.74,0.77,3.69,1.15,5.74,1.05
	c6.39-0.32,11.6-5.48,11.97-11.87c0.12-2.09-0.26-4.08-1.04-5.86C71.82,5.94,75.02,10.73,74.7,16.23z"/>
<circle class="st0" cx="55.12" cy="14.2" r="2.3"/>
<g>
	<path class="st0" d="M6.18,11.4c1.04-2.05,2.7-3.74,4.74-4.8"/>
	<path class="st0" d="M10.92,6.6C12.44,5.8,14.17,5.35,16,5.35c2.74,0,5.24,1.01,7.16,2.66"/>
	<path class="st0" d="M6.18,11.4c-0.75,1.49-1.19,3.17-1.19,4.96c0,6.08,4.93,11.01,11.01,11.01c3.76,0,7.07-1.89,9.06-4.76"/>
	<path class="st0" d="M23.16,8.01c2.35,2.02,3.84,5.01,3.84,8.35c0,2.32-0.72,4.47-1.95,6.25"/>
	<path class="st0" d="M6.18,11.4c0.18,0.97,0.54,1.9,1.06,2.73c0.27,0.42,2.24,3.01,2.59,3.24c0.23,0.15,0.46,0.35,0.5,0.62
		c0.03,0.21-0.37,1.03-0.43,1.24c-0.2,0.7,1.08-0.08,1.69,0.3c0.3,0.18,0.94,1.7,1.07,2.32c0.21,0.96,0.59,1.88,0.96,2.79
		c0.08,0.19,0.16,0.39,0.32,0.53c0.16,0.13,1.04,0.07,1.14-0.08c0.32-0.45,0.08-0.9,0.18-1.25c0.09-0.35,0.26-0.53,0.6-0.63
		c0.14-0.04,0.58-0.08,0.68-0.18c0.43-0.44,0.43-0.95,0.55-1.39c0.21-0.82,0.78-0.97,1.03-1.77c0.21-0.67,0.53-1.46-0.11-1.76
		c-0.18-0.08-2.7-1.97-3.74-2.1c-0.41-0.05-1.89-0.19-2.12-0.53c-0.12-0.17-0.11-0.64-0.24-0.8c-0.16-0.2-0.41-0.28-0.64-0.39
		c-0.36-0.19-0.9-0.14-0.98-0.54c-0.08-0.4,0.12-0.86,0.5-1.01c0.38-0.15,0.89-0.02,1.14-0.34c0.19-0.24,0.1-0.59,0.14-0.89
		c0.09-0.61,0.71-0.98,1.26-1.27c0.55-0.29,1.16-0.7,1.18-1.32c0.02-0.6-0.52-1.05-1.02-1.39c-0.3-0.2-0.62-0.4-0.97-0.42
		c-0.2-0.01-1.39-0.19-1.61-0.52"/>
	<path class="st0" d="M23.16,8.01c-0.23,0.23-0.31,0.6-0.17,0.9c0.13,0.29,0.44,0.52,0.45,0.84c0.01,0.24-0.17,0.46-0.37,0.6
		c-0.28,0.19-0.62,0.28-0.94,0.39c-0.32,0.11-0.65,0.25-0.87,0.51c-0.21,0.26-0.27,0.68-0.04,0.94c0.32,0.36,0.97,0.18,1.33,0.5
		c-0.63,0.16-1.3,0.34-1.76,0.8c-0.49,0.48-0.67,1.26-0.44,1.9c0.23,0.65,0.86,1.14,1.55,1.19c0.24,0.02,0.48-0.01,0.72,0.04
		c0.65,0.14,1.01,0.86,1.08,1.53c0.07,0.66-0.06,1.34,0.06,2c0.16,0.92,0.77,1.67,1.29,2.46"/>
</g>
<circle class="st0" cx="-30.11" cy="-26.55" r="6.8"/>
<line class="st0" x1="-30.11" y1="-37.21" x2="-30.11" y2="-39.68"/>
<line class="st0" x1="-37.64" y1="-34.08" x2="-39.39" y2="-35.83"/>
<line class="st1" x1="-40.76" y1="-26.55" x2="-43.23" y2="-26.55"/>
<line class="st0" x1="-37.64" y1="-19.02" x2="-39.39" y2="-17.27"/>
<line class="st0" x1="-30.11" y1="-15.9" x2="-30.11" y2="-13.42"/>
<line class="st0" x1="-22.57" y1="-19.02" x2="-20.82" y2="-17.27"/>
<line class="st0" x1="-19.45" y1="-26.55" x2="-16.98" y2="-26.55"/>
<line class="st0" x1="-22.57" y1="-34.08" x2="-20.82" y2="-35.83"/>
<path class="st0" d="M74.7-26.32c-0.37,6.35-5.53,11.5-11.88,11.87c-5.49,0.32-10.28-2.88-12.33-7.54c1.74,0.77,3.69,1.15,5.74,1.05
	c6.39-0.32,11.6-5.48,11.97-11.87c0.12-2.09-0.26-4.08-1.04-5.86C71.82-36.62,75.02-31.82,74.7-26.32z"/>
<circle class="st0" cx="55.12" cy="-28.35" r="2.3"/>
<g>
	<path class="st0" d="M6.18-31.15c1.04-2.05,2.7-3.74,4.74-4.8"/>
	<path class="st0" d="M10.92-35.96c1.52-0.79,3.25-1.25,5.08-1.25c2.74,0,5.24,1.01,7.16,2.66"/>
	<path class="st0" d="M6.18-31.15c-0.75,1.49-1.19,3.17-1.19,4.96c0,6.08,4.93,11.01,11.01,11.01c3.76,0,7.07-1.89,9.06-4.76"/>
	<path class="st0" d="M23.16-34.54c2.35,2.02,3.84,5.01,3.84,8.35c0,2.32-0.72,4.47-1.95,6.25"/>
	<path class="st0" d="M6.18-31.15c0.18,0.97,0.54,1.9,1.06,2.73c0.27,0.42,2.24,3.01,2.59,3.24c0.23,0.15,0.46,0.35,0.5,0.62
		c0.03,0.21-0.37,1.03-0.43,1.24c-0.2,0.7,1.08-0.08,1.69,0.3c0.3,0.18,0.94,1.7,1.07,2.32c0.21,0.96,0.59,1.88,0.96,2.79
		c0.08,0.19,0.16,0.39,0.32,0.53c0.16,0.13,1.04,0.07,1.14-0.08c0.32-0.45,0.08-0.9,0.18-1.25c0.09-0.35,0.26-0.53,0.6-0.63
		c0.14-0.04,0.58-0.08,0.68-0.18c0.43-0.44,0.43-0.95,0.55-1.39c0.21-0.82,0.78-0.97,1.03-1.77c0.21-0.67,0.53-1.46-0.11-1.76
		c-0.18-0.08-2.7-1.97-3.74-2.1c-0.41-0.05-1.89-0.19-2.12-0.53c-0.12-0.17-0.11-0.64-0.24-0.8c-0.16-0.2-0.41-0.28-0.64-0.39
		c-0.36-0.19-0.9-0.14-0.98-0.54c-0.08-0.4,0.12-0.86,0.5-1.01c0.38-0.15,0.89-0.02,1.14-0.34c0.19-0.24,0.1-0.59,0.14-0.89
		c0.09-0.61,0.71-0.98,1.26-1.27c0.55-0.29,1.16-0.7,1.18-1.32c0.02-0.6-0.52-1.05-1.02-1.39c-0.3-0.2-0.62-0.4-0.97-0.42
		c-0.2-0.01-1.39-0.19-1.61-0.52"/>
	<path class="st0" d="M23.16-34.54c-0.23,0.23-0.31,0.6-0.17,0.9c0.13,0.29,0.44,0.52,0.45,0.84c0.01,0.24-0.17,0.46-0.37,0.6
		c-0.28,0.19-0.62,0.28-0.94,0.39c-0.32,0.11-0.65,0.25-0.87,0.51c-0.21,0.26-0.27,0.68-0.04,0.94c0.32,0.36,0.97,0.18,1.33,0.5
		c-0.63,0.16-1.3,0.34-1.76,0.8c-0.49,0.48-0.67,1.26-0.44,1.9c0.23,0.65,0.86,1.14,1.55,1.19c0.24,0.02,0.48-0.01,0.72,0.04
		c0.65,0.14,1.01,0.86,1.08,1.53c0.07,0.66-0.06,1.34,0.06,2c0.16,0.92,0.77,1.67,1.29,2.46"/>
</g>
</svg>
