<svg width="24" height="24" viewBox="0 0 24 24" fill="none" xmlns="http://www.w3.org/2000/svg">
<path d="M12 5.5H8C5.51472 5.5 3.5 7.51472 3.5 10C3.5 11.7669 4.51832 13.2959 6.00009 14.0323C6.01636 14.0404 6.03268 14.0484 6.04906 14.0563C6.50373 14.2753 7.00088 14.4202 7.5248 14.4752C7.68096 14.4916 7.8395 14.5 8 14.5H12C14.3056 14.5 16.2062 12.7661 16.469 10.5312C16.9937 10.6014 17.4816 10.7879 17.906 11.064C17.4038 13.8701 14.9506 16 12 16H8C7.98923 16 7.97848 16 7.96772 15.9999C7.9448 15.9998 7.9219 15.9995 7.89904 15.9992C7.32883 15.9898 6.77797 15.9008 6.25708 15.7429C3.79339 14.9962 2 12.7075 2 10C2 6.68629 4.68629 4 8 4H12C14.2673 4 16.2409 5.25761 17.2612 7.11332C16.8521 7.03888 16.4306 7 16 7H15.3542C14.5302 6.07938 13.3327 5.5 12 5.5Z" fill="black"/>
<path d="M17.9999 9.96771C17.5321 9.73522 17.018 9.58176 16.4752 9.52479C16.319 9.5084 16.1605 9.5 16 9.5H12C9.69443 9.5 7.79383 11.2339 7.53102 13.4689C7.00631 13.3986 6.5184 13.2121 6.09405 12.936C6.59623 10.1299 9.04939 8 12 8H16C16.0108 8 16.0215 8.00003 16.0323 8.00009C16.627 8.00322 17.2011 8.09286 17.7429 8.25707C20.2066 9.00379 22 11.2925 22 14C22 17.3137 19.3137 20 16 20H12C9.7327 20 7.75912 18.7424 6.73878 16.8867C7.1479 16.9611 7.56941 17 8 17H8.64585C9.46983 17.9206 10.6673 18.5 12 18.5H16C18.4853 18.5 20.5 16.4853 20.5 14C20.5 12.2331 19.4817 10.704 17.9999 9.96771Z" fill="black"/>
</svg>
