<?xml version="1.0" encoding="utf-8"?>
<!-- Generator: Adobe Illustrator 24.1.2, SVG Export Plug-In . SVG Version: 6.00 Build 0)  -->
<svg version="1.1" id="Layer_1" xmlns="http://www.w3.org/2000/svg" xmlns:xlink="http://www.w3.org/1999/xlink" x="0px" y="0px"
	 viewBox="0 0 32 32" style="enable-background:new 0 0 32 32;" xml:space="preserve">
<style type="text/css">
	.st0{fill:none;stroke:#000000;stroke-width:2;stroke-linecap:round;stroke-linejoin:round;stroke-miterlimit:10;}
	.st1{fill:none;stroke:#000000;stroke-width:2;stroke-linecap:round;stroke-miterlimit:10;}
</style>
<path d="M-76.11,23.8c-4.3,0-7.8-3.5-7.8-7.8c0-4.3,3.5-7.8,7.8-7.8s7.8,3.5,7.8,7.8C-68.31,20.3-71.81,23.8-76.11,23.8z
	 M-76.11,10.2c-3.2,0-5.8,2.6-5.8,5.8c0,3.2,2.6,5.8,5.8,5.8s5.8-2.6,5.8-5.8C-70.31,12.8-72.92,10.2-76.11,10.2z"/>
<path d="M-76.11,6.35c-0.55,0-1-0.45-1-1V2.87c0-0.55,0.45-1,1-1s1,0.45,1,1v2.47C-75.11,5.9-75.56,6.35-76.11,6.35z"/>
<path d="M-83.65,9.47c-0.26,0-0.51-0.1-0.71-0.29l-1.75-1.75c-0.39-0.39-0.39-1.02,0-1.41s1.02-0.39,1.41,0l1.75,1.75
	c0.39,0.39,0.39,1.02,0,1.41C-83.14,9.37-83.39,9.47-83.65,9.47z"/>
<path d="M-86.77,17h-2.47c-0.55,0-1-0.45-1-1c0-0.55,0.45-1,1-1h2.47c0.55,0,1,0.45,1,1C-85.77,16.55-86.22,17-86.77,17z"/>
<path d="M-85.4,26.28c-0.26,0-0.51-0.1-0.71-0.29c-0.39-0.39-0.39-1.02,0-1.41l1.75-1.75c0.39-0.39,1.02-0.39,1.41,0
	s0.39,1.02,0,1.41l-1.75,1.75C-84.88,26.18-85.14,26.28-85.4,26.28z"/>
<path d="M-76.11,30.13c-0.55,0-1-0.45-1-1v-2.47c0-0.55,0.45-1,1-1s1,0.45,1,1v2.47C-75.11,29.68-75.56,30.13-76.11,30.13z"/>
<path d="M-66.83,26.28c-0.26,0-0.51-0.1-0.71-0.29l-1.75-1.75c-0.39-0.39-0.39-1.02,0-1.41s1.02-0.39,1.41,0l1.75,1.75
	c0.39,0.39,0.39,1.02,0,1.41C-66.32,26.18-66.58,26.28-66.83,26.28z"/>
<path d="M-62.99,17h-2.47c-0.55,0-1-0.45-1-1c0-0.55,0.45-1,1-1h2.47c0.55,0,1,0.45,1,1C-61.99,16.55-62.43,17-62.99,17z"/>
<path d="M-68.58,9.47c-0.26,0-0.51-0.1-0.71-0.29c-0.39-0.39-0.39-1.02,0-1.41l1.75-1.75c0.39-0.39,1.02-0.39,1.41,0
	s0.39,1.02,0,1.41l-1.75,1.75C-68.07,9.37-68.33,9.47-68.58,9.47z"/>
<path d="M16.09,29.12c-5.38,0-10.35-3.2-12.52-8.16c-0.17-0.38-0.08-0.82,0.21-1.11c0.29-0.29,0.73-0.37,1.11-0.21
	c1.66,0.73,3.44,1.06,5.28,0.97C16,20.32,20.85,15.52,21.19,9.68c0.11-1.88-0.21-3.7-0.96-5.4c-0.17-0.38-0.08-0.82,0.21-1.11
	s0.73-0.38,1.11-0.21c5.2,2.29,8.47,7.64,8.14,13.32l0,0c-0.4,6.91-5.92,12.41-12.82,12.81C16.6,29.11,16.34,29.12,16.09,29.12z
	 M6.63,22.31c2.3,3.15,6.12,5.02,10.11,4.79c5.89-0.34,10.6-5.04,10.94-10.93l0,0c0.23-4.01-1.63-7.82-4.79-10.13
	c0.27,1.22,0.37,2.48,0.29,3.76c-0.4,6.84-6.08,12.46-12.92,12.81C9.04,22.67,7.82,22.57,6.63,22.31z M28.69,16.23L28.69,16.23
	L28.69,16.23z"/>
<path d="M9.11,17.5c-1.82,0-3.3-1.48-3.3-3.3s1.48-3.3,3.3-3.3s3.3,1.48,3.3,3.3S10.93,17.5,9.11,17.5z M9.11,12.9
	c-0.72,0-1.3,0.58-1.3,1.3c0,0.72,0.58,1.3,1.3,1.3s1.3-0.58,1.3-1.3C10.41,13.49,9.83,12.9,9.11,12.9z"/>
<path d="M-20.12,23.16c1.39-2.01,2.12-4.36,2.12-6.8c0-3.48-1.51-6.78-4.15-9.06c0,0,0,0,0-0.01c0,0,0,0-0.01,0
	c-0.01-0.01-0.02-0.02-0.04-0.03c-2.18-1.87-4.95-2.9-7.82-2.9c-1.95,0-3.81,0.46-5.54,1.36c-2.24,1.17-4.02,2.98-5.17,5.24
	c0,0,0,0,0,0c-0.86,1.7-1.3,3.52-1.3,5.41c0,6.62,5.39,12.01,12.01,12.01c3.94,0,7.63-1.94,9.88-5.19
	C-20.13,23.17-20.13,23.17-20.12,23.16C-20.12,23.16-20.12,23.16-20.12,23.16z M-20,16.36c0,1.51-0.34,2.99-0.99,4.33
	c-0.13-0.24-0.23-0.48-0.27-0.72c-0.05-0.26-0.04-0.58-0.03-0.91c0.01-0.34,0.02-0.68-0.02-1.02c-0.13-1.24-0.86-2.18-1.87-2.4
	c-0.25-0.05-0.48-0.06-0.66-0.05c-0.07,0-0.13,0-0.19,0c-0.29-0.02-0.58-0.25-0.68-0.52c-0.1-0.28-0.02-0.65,0.2-0.86
	c0.26-0.26,0.73-0.4,1.3-0.54c0.36-0.09,0.64-0.38,0.72-0.74c0.08-0.36-0.04-0.74-0.32-0.98c-0.17-0.15-0.36-0.25-0.54-0.31
	c0.29-0.09,0.64-0.22,0.97-0.44c0.23-0.16,0.4-0.35,0.53-0.56C-20.66,12.28-20,14.28-20,16.36z M-35.08,7.76
	c0.71,0.3,1.54,0.35,1.55,0.35c0.1,0,0.36,0.18,0.46,0.25c0.52,0.35,0.58,0.51,0.58,0.51h0c-0.01,0.02-0.08,0.18-0.65,0.49
	c-0.56,0.3-1.62,0.86-1.78,2.01c-0.01,0.1-0.02,0.2-0.02,0.3c-0.18,0.02-0.41,0.05-0.64,0.15c-0.8,0.32-1.28,1.24-1.1,2.13
	c0.17,0.89,0.97,1.1,1.31,1.18c0.06,0.02,0.13,0.03,0.19,0.05c0.07,0.04,0.14,0.07,0.21,0.1c0.01,0.01,0.02,0.01,0.03,0.02
	c0.04,0.23,0.1,0.51,0.27,0.76c0.39,0.57,1.2,0.76,2.65,0.93l0.16,0.02c0.27,0.04,0.99,0.35,2.92,1.68
	c0.12,0.08,0.22,0.15,0.31,0.21c-0.03,0.16-0.11,0.38-0.16,0.53l-0.05,0.15c-0.06,0.2-0.15,0.31-0.33,0.53
	c-0.23,0.28-0.55,0.67-0.72,1.3c-0.03,0.12-0.05,0.24-0.08,0.36c-0.04,0.21-0.07,0.34-0.11,0.44c-0.02,0-0.04,0.01-0.06,0.01
	c-0.12,0.02-0.21,0.04-0.27,0.06c-0.68,0.19-1.12,0.64-1.3,1.33c0,0.01-0.01,0.03-0.01,0.04c-0.26-0.65-0.5-1.32-0.65-1.99
	c0-0.02-0.66-2.43-1.53-2.96c-0.28-0.17-0.57-0.24-0.85-0.25c0.05-0.21,0.08-0.39,0.05-0.58c-0.11-0.77-0.74-1.18-0.89-1.28
	c-0.36-0.32-2.11-2.6-2.35-2.98c-0.38-0.61-0.67-1.3-0.84-2.03C-37.89,9.97-36.63,8.68-35.08,7.76z M-40.02,16.36
	c0-0.69,0.08-1.36,0.22-2.02c0.06,0.11,0.12,0.22,0.19,0.33c0.13,0.21,2.2,3.04,2.85,3.52c-0.04,0.11-0.09,0.23-0.12,0.31
	c-0.08,0.2-0.15,0.38-0.18,0.47c-0.17,0.61,0.07,1,0.23,1.18c0.46,0.51,1.1,0.41,1.52,0.33c0.09-0.02,0.23-0.04,0.33-0.05
	c0.22,0.39,0.57,1.23,0.66,1.64c0.23,1.06,0.63,2.03,1.02,2.96c0.1,0.24,0.25,0.61,0.59,0.9c0.02,0.02,0.06,0.05,0.1,0.07
	C-36.87,24.86-40.02,20.98-40.02,16.36z M-30.01,26.36c-0.5,0-0.99-0.05-1.48-0.12c0.09,0,0.17-0.01,0.27-0.02
	c0.34-0.04,0.84-0.14,1.13-0.55c0.42-0.58,0.37-1.17,0.35-1.49c0-0.01,0-0.01,0-0.02c0.34-0.06,0.72-0.13,1.01-0.42
	c0.55-0.55,0.67-1.18,0.75-1.6c0.02-0.08,0.03-0.17,0.05-0.25c0.05-0.2,0.14-0.3,0.32-0.53c0.22-0.26,0.51-0.62,0.7-1.19l0.04-0.14
	c0.21-0.65,0.72-2.19-0.61-2.8c-0.05-0.03-0.16-0.11-0.31-0.21c-1.64-1.13-2.91-1.9-3.79-2.01L-31.77,15
	c-0.64-0.08-1.01-0.14-1.22-0.2c-0.05-0.23-0.12-0.5-0.3-0.74c-0.22-0.28-0.49-0.43-0.7-0.54c0.25-0.08,0.51-0.23,0.72-0.5
	c0.34-0.44,0.34-0.92,0.34-1.21c0-0.05,0-0.11,0-0.16c0-0.04,0.07-0.17,0.73-0.53c0.41-0.22,1.66-0.88,1.71-2.17
	c0.05-1.24-1.05-1.98-1.47-2.26c-0.04-0.03-0.1-0.06-0.15-0.1c2.77-0.58,5.74,0.05,8.04,1.76c-0.04,0.32-0.01,0.66,0.12,0.96
	c0.06,0.12,0.12,0.23,0.18,0.33c-0.08,0.03-0.18,0.06-0.27,0.09l-0.17,0.06c-0.42,0.14-0.94,0.36-1.33,0.83
	c-0.47,0.58-0.54,1.39-0.2,1.98c-0.07,0.06-0.13,0.12-0.2,0.18c-0.76,0.76-1.03,1.94-0.68,2.95c0.36,1.03,1.33,1.77,2.42,1.85
	c0.11,0.01,0.22,0.01,0.34,0.01c0.08,0,0.19,0,0.23,0.01c0.08,0.02,0.26,0.28,0.3,0.65c0.03,0.25,0.02,0.51,0.01,0.76
	c-0.01,0.4-0.02,0.85,0.06,1.31c0.16,0.88,0.61,1.6,1.04,2.24C-24.08,24.94-26.95,26.36-30.01,26.36z"/>
<circle class="st0" cx="-76.11" cy="-26.55" r="6.8"/>
<line class="st0" x1="-76.11" y1="-37.21" x2="-76.11" y2="-39.68"/>
<line class="st0" x1="-83.65" y1="-34.08" x2="-85.4" y2="-35.83"/>
<line class="st1" x1="-86.77" y1="-26.55" x2="-89.24" y2="-26.55"/>
<line class="st0" x1="-83.65" y1="-19.02" x2="-85.4" y2="-17.27"/>
<line class="st0" x1="-76.11" y1="-15.9" x2="-76.11" y2="-13.42"/>
<line class="st0" x1="-68.58" y1="-19.02" x2="-66.83" y2="-17.27"/>
<line class="st0" x1="-65.46" y1="-26.55" x2="-62.99" y2="-26.55"/>
<line class="st0" x1="-68.58" y1="-34.08" x2="-66.83" y2="-35.83"/>
<path class="st0" d="M28.69-26.32c-0.37,6.35-5.53,11.5-11.88,11.87C11.32-14.14,6.53-17.33,4.48-22c1.74,0.77,3.69,1.15,5.74,1.05
	c6.39-0.32,11.6-5.48,11.97-11.87c0.12-2.09-0.26-4.08-1.04-5.86C25.82-36.62,29.01-31.82,28.69-26.32z"/>
<circle class="st0" cx="9.11" cy="-28.35" r="2.3"/>
<g>
	<path class="st0" d="M-39.83-31.15c1.04-2.05,2.7-3.74,4.74-4.8"/>
	<path class="st0" d="M-35.09-35.96c1.52-0.79,3.25-1.25,5.08-1.25c2.74,0,5.24,1.01,7.16,2.66"/>
	<path class="st0" d="M-39.83-31.15c-0.75,1.49-1.19,3.17-1.19,4.96c0,6.08,4.93,11.01,11.01,11.01c3.76,0,7.07-1.89,9.06-4.76"/>
	<path class="st0" d="M-22.84-34.54c2.35,2.02,3.84,5.01,3.84,8.35c0,2.32-0.72,4.47-1.95,6.25"/>
	<path class="st0" d="M-39.83-31.15c0.18,0.97,0.54,1.9,1.06,2.73c0.27,0.42,2.24,3.01,2.59,3.24c0.23,0.15,0.46,0.35,0.5,0.62
		c0.03,0.21-0.37,1.03-0.43,1.24c-0.2,0.7,1.08-0.08,1.69,0.3c0.3,0.18,0.94,1.7,1.07,2.32c0.21,0.96,0.59,1.88,0.96,2.79
		c0.08,0.19,0.16,0.39,0.32,0.53c0.16,0.13,1.04,0.07,1.14-0.08c0.32-0.45,0.08-0.9,0.18-1.25c0.09-0.35,0.26-0.53,0.6-0.63
		c0.14-0.04,0.58-0.08,0.68-0.18c0.43-0.44,0.43-0.95,0.55-1.39c0.21-0.82,0.78-0.97,1.03-1.77c0.21-0.67,0.53-1.46-0.11-1.76
		c-0.18-0.08-2.7-1.97-3.74-2.1c-0.41-0.05-1.89-0.19-2.12-0.53c-0.12-0.17-0.11-0.64-0.24-0.8c-0.16-0.2-0.41-0.28-0.64-0.39
		c-0.36-0.19-0.9-0.14-0.98-0.54c-0.08-0.4,0.12-0.86,0.5-1.01c0.38-0.15,0.89-0.02,1.14-0.34c0.19-0.24,0.1-0.59,0.14-0.89
		c0.09-0.61,0.71-0.98,1.26-1.27c0.55-0.29,1.16-0.7,1.18-1.32c0.02-0.6-0.52-1.05-1.02-1.39c-0.3-0.2-0.62-0.4-0.97-0.42
		c-0.2-0.01-1.39-0.19-1.61-0.52"/>
	<path class="st0" d="M-22.84-34.54c-0.23,0.23-0.31,0.6-0.17,0.9c0.13,0.29,0.44,0.52,0.45,0.84c0.01,0.24-0.17,0.46-0.37,0.6
		c-0.28,0.19-0.62,0.28-0.94,0.39c-0.32,0.11-0.65,0.25-0.87,0.51c-0.21,0.26-0.27,0.68-0.04,0.94c0.32,0.36,0.97,0.18,1.33,0.5
		c-0.63,0.16-1.3,0.34-1.76,0.8c-0.49,0.48-0.67,1.26-0.44,1.9c0.23,0.65,0.86,1.14,1.55,1.19c0.24,0.02,0.48-0.01,0.72,0.04
		c0.65,0.14,1.01,0.86,1.08,1.53c0.07,0.66-0.06,1.34,0.06,2c0.16,0.92,0.77,1.67,1.29,2.46"/>
</g>
</svg>
