<svg width="24" height="24" viewBox="0 0 24 24" fill="none" xmlns="http://www.w3.org/2000/svg">
<path fill-rule="evenodd" clip-rule="evenodd" d="M19.0471 2.81265C17.9635 1.72912 16.2068 1.72912 15.1232 2.81265L5.80898 12.1269C5.2829 12.653 4.88652 13.2943 4.65124 14.0002L3.09364 18.673C2.66594 19.9561 3.5 21 5.00001 21H20.25C20.6642 21 21 20.6642 21 20.25C21 19.8358 20.6642 19.5 20.25 19.5H9.54603L9.99982 19.3487C10.7056 19.1135 11.347 18.7171 11.8731 18.191L21.1873 8.87675C22.2709 7.79321 22.2709 6.03645 21.1873 4.95292L19.0471 2.81265ZM16.1934 3.88278C16.6859 3.39027 17.4844 3.39027 17.9769 3.88279L20.1172 6.02305C20.6097 6.51557 20.6097 7.3141 20.1172 7.80661L19.2207 8.70313L15.2969 4.77931L16.1934 3.88278ZM14.2362 5.83997L6.87912 13.197C6.51916 13.557 6.24796 13.9958 6.08698 14.4787L5.46365 16.3487L7.65125 18.5363L9.52124 17.913C10.0042 17.752 10.443 17.4808 10.8029 17.1209L18.16 9.76379L14.2362 5.83997ZM4.52938 19.1516L4.93332 17.9397L6.06026 19.0667L4.84843 19.4706C4.65125 19.5363 4.46365 19.3487 4.52938 19.1516Z" fill="black"/>
</svg>
