<svg width="32" height="32" viewBox="0 0 32 32" fill="none" xmlns="http://www.w3.org/2000/svg">
<circle cx="16" cy="16" r="13.25" stroke="black" stroke-width="1.5"/>
<path d="M11 28V18.8C11 18.2719 11.1046 17.749 11.3077 17.2615L15.0769 8.21538C15.4188 7.39487 16.5812 7.39487 16.9231 8.21538L20.6923 17.2615C20.8954 17.749 21 18.2719 21 18.8V28" stroke="black" stroke-width="1.5" stroke-linecap="round"/>
<path d="M18 11H14L15.0715 8.32119C15.4068 7.48305 16.5932 7.48305 16.9285 8.32119L18 11Z" fill="black" stroke="black"/>
<path d="M21 21C21 18.3333 18 18.3333 18 21" stroke="black" stroke-width="1.5" stroke-linecap="round"/>
<path d="M18 21C18 18.3333 14 18.3333 14 21" stroke="black" stroke-width="1.5" stroke-linecap="round"/>
<path d="M14 21C14 18.3333 11 18.3333 11 21" stroke="black" stroke-width="1.5" stroke-linecap="round"/>
<path d="M18 21V29" stroke="black" stroke-width="1.5" stroke-linecap="round"/>
<path d="M14 21V29" stroke="black" stroke-width="1.5" stroke-linecap="round"/>
</svg>
