<svg width="24" height="24" viewBox="0 0 24 24" fill="none" xmlns="http://www.w3.org/2000/svg">
<path fill-rule="evenodd" clip-rule="evenodd" d="M17 7H19C20.6569 7 22 8.34315 22 10V18C22 19.6569 20.6569 21 19 21H5C3.34315 21 2 19.6569 2 18V10C2 9.79289 2.02099 9.59069 2.06095 9.3954C2.34069 8.02835 3.55025 7 5 7H7V5C7 3.89543 7.89543 3 9 3H15C16.1046 3 17 3.89543 17 5V7ZM8.5 5V7H15.5V5C15.5 4.72386 15.2761 4.5 15 4.5H9C8.72386 4.5 8.5 4.72386 8.5 5ZM5 8.5C4.27513 8.5 3.67034 9.01417 3.53047 9.6977C3.51049 9.79534 3.5 9.89645 3.5 10C3.5 11.933 5.067 13.5 7 13.5H9.55001C9.78164 12.3589 10.7905 11.5 12 11.5C13.2095 11.5 14.2184 12.3589 14.45 13.5H17C18.933 13.5 20.5 11.933 20.5 10C20.5 9.17157 19.8284 8.5 19 8.5H5ZM12.8662 13.5C12.6933 13.2011 12.3701 13 12 13C11.6299 13 11.3067 13.2011 11.1338 13.5C11.0487 13.6471 11 13.8179 11 14V15C11 15.5523 11.4477 16 12 16C12.5523 16 13 15.5523 13 15V14C13 13.8179 12.9513 13.6471 12.8662 13.5ZM9.5 15C9.5 16.3807 10.6193 17.5 12 17.5C13.3807 17.5 14.5 16.3807 14.5 15H17C18.3627 15 19.5981 14.4548 20.5 13.5707V18C20.5 18.8284 19.8284 19.5 19 19.5H5C4.17157 19.5 3.5 18.8284 3.5 18V13.5707C4.40188 14.4548 5.63727 15 7 15H9.5Z" fill="black"/>
</svg>
