<svg width="32" height="32" viewBox="0 0 32 32" fill="none" xmlns="http://www.w3.org/2000/svg">
<path fill-rule="evenodd" clip-rule="evenodd" d="M30 16C30 21.9704 26.2627 27.0679 21 29.0807C19.4472 29.6746 17.7616 30 16 30C14.2384 30 12.5528 29.6746 11 29.0807C5.73726 27.0679 2 21.9704 2 16C2 8.26801 8.26801 2 16 2C23.732 2 30 8.26801 30 16ZM21 27.4599V20.778C21 19.5427 20.7711 18.3181 20.325 17.1662L18.6144 12.75H13.3856L11.675 17.1662C11.2289 18.3181 11 19.5427 11 20.778L11 27.4599C12.5312 28.1289 14.2222 28.5 16 28.5C17.7778 28.5 19.4689 28.1289 21 27.4599ZM13.9666 11.25H18.0335L16.9325 8.4075C16.6026 7.55574 15.3974 7.55574 15.0675 8.4075L13.9666 11.25Z" fill="black"/>
</svg>
