<svg width="32" height="32" viewBox="0 0 32 32" fill="none" xmlns="http://www.w3.org/2000/svg">
<path fill-rule="evenodd" clip-rule="evenodd" d="M15.8009 11.1546L13.7377 8.20806C12.8665 6.96394 11.1518 6.66159 9.90766 7.53272C8.66354 8.40386 8.36118 10.1186 9.23232 11.3627L12.4437 15.9491L8.37742 21.7564C7.82306 22.5481 8.01547 23.6394 8.80718 24.1937L11.2646 25.9144C12.0563 26.4688 13.1476 26.2764 13.7019 25.4847L14.6816 24.0856L14.6852 24.0805L14.6887 24.0754L16.4113 21.6153L18.2741 24.2758C18.43 24.4983 18.6355 24.6815 18.8744 24.8109L20.8407 25.8756C22.1088 26.5623 23.6166 25.5065 23.405 24.0801L23.077 21.8682C23.0372 21.5994 22.9353 21.3437 22.7795 21.1211L19.7684 16.8208L20.9092 15.1916L20.9126 15.1868L20.9159 15.182L23.4527 11.5591C24.0071 10.7674 23.8147 9.67619 23.023 9.12183L20.5655 7.4011C19.7738 6.84674 18.6826 7.03915 18.1282 7.83085L15.8009 11.1546ZM10.4611 10.5024L13.3593 14.6415L14.8853 12.4622L12.5089 9.06842C12.113 8.50291 11.3335 8.36548 10.768 8.76145C10.2025 9.15742 10.0651 9.93686 10.4611 10.5024ZM19.5029 23.4154L17.3268 20.3077L17.7915 19.6442L17.799 19.6337L17.8063 19.6231L18.8528 18.1284L21.5507 21.9815C21.573 22.0133 21.5876 22.0498 21.5933 22.0882L21.9213 24.3001C21.9515 24.5039 21.7361 24.6547 21.5549 24.5566L19.5886 23.4919C19.5545 23.4734 19.5251 23.4472 19.5029 23.4154ZM13.8866 22.6057L13.1358 22.08C12.7964 21.8424 12.3288 21.9248 12.0912 22.2641C11.8536 22.6034 11.9361 23.0711 12.2754 23.3087L13.0263 23.8345L12.4732 24.6243C12.394 24.7374 12.2381 24.7649 12.125 24.6857L9.66755 22.965C9.55445 22.8858 9.52696 22.7299 9.60615 22.6168L19.357 8.69122C19.4361 8.57812 19.592 8.55063 19.7051 8.62983L22.1626 10.3506C22.2757 10.4297 22.3032 10.5856 22.224 10.6987L21.6709 11.4887L20.2373 10.4849C19.898 10.2473 19.4304 10.3297 19.1928 10.6691C18.9552 11.0084 19.0376 11.476 19.3769 11.7136L20.8105 12.7174L20.114 13.7121L19.3632 13.1863C19.0239 12.9487 18.5562 13.0312 18.3186 13.3705C18.081 13.7098 18.1635 14.1774 18.5028 14.415L19.2537 14.9408L18.5572 15.9354L17.1237 14.9316C16.7844 14.6941 16.3167 14.7765 16.0791 15.1158C15.8415 15.4551 15.924 15.9228 16.2633 16.1604L17.6968 17.1642L17.0003 18.1589L16.2495 17.6332C15.9102 17.3956 15.4426 17.4781 15.205 17.8174C14.9674 18.1567 15.0499 18.6243 15.3892 18.8619L16.14 19.3876L15.4435 20.3823L14.0099 19.3785C13.6706 19.141 13.2029 19.2234 12.9654 19.5627C12.7278 19.902 12.8102 20.3697 13.1495 20.6073L14.5831 21.6111L13.8866 22.6057Z" fill="black"/>
<path fill-rule="evenodd" clip-rule="evenodd" d="M5 4C5 2.89543 5.89543 2 7 2H25C26.1046 2 27 2.89543 27 4V28C27 29.1046 26.1046 30 25 30H7C5.89543 30 5 29.1046 5 28V4ZM7 3.5H25C25.2761 3.5 25.5 3.72386 25.5 4V28C25.5 28.2761 25.2761 28.5 25 28.5H7C6.72386 28.5 6.5 28.2761 6.5 28V4C6.5 3.72386 6.72386 3.5 7 3.5Z" fill="black"/>
</svg>
