<?xml version="1.0" encoding="utf-8"?>
<!-- Generator: Adobe Illustrator 24.1.2, SVG Export Plug-In . SVG Version: 6.00 Build 0)  -->
<svg version="1.1" id="Layer_1" xmlns="http://www.w3.org/2000/svg" xmlns:xlink="http://www.w3.org/1999/xlink" x="0px" y="0px"
	 viewBox="0 0 32 32" style="enable-background:new 0 0 32 32;" xml:space="preserve">
<style type="text/css">
	.st0{fill:none;stroke:#000000;stroke-width:2;stroke-linecap:round;stroke-linejoin:round;stroke-miterlimit:10;}
	.st1{fill:none;stroke:#000000;stroke-width:2;stroke-linecap:round;stroke-miterlimit:10;}
</style>
<path d="M16,23.8c-4.3,0-7.8-3.5-7.8-7.8c0-4.3,3.5-7.8,7.8-7.8s7.8,3.5,7.8,7.8C23.8,20.3,20.3,23.8,16,23.8z M16,10.2
	c-3.2,0-5.8,2.6-5.8,5.8c0,3.2,2.6,5.8,5.8,5.8s5.8-2.6,5.8-5.8C21.8,12.8,19.2,10.2,16,10.2z"/>
<path d="M16,6.35c-0.55,0-1-0.45-1-1V2.87c0-0.55,0.45-1,1-1s1,0.45,1,1v2.47C17,5.9,16.55,6.35,16,6.35z"/>
<path d="M8.47,9.47c-0.26,0-0.51-0.1-0.71-0.29L6.01,7.42c-0.39-0.39-0.39-1.02,0-1.41s1.02-0.39,1.41,0l1.75,1.75
	c0.39,0.39,0.39,1.02,0,1.41C8.98,9.37,8.72,9.47,8.47,9.47z"/>
<path d="M5.35,17H2.87c-0.55,0-1-0.45-1-1c0-0.55,0.45-1,1-1h2.47c0.55,0,1,0.45,1,1C6.35,16.55,5.9,17,5.35,17z"/>
<path d="M6.72,26.28c-0.26,0-0.51-0.1-0.71-0.29c-0.39-0.39-0.39-1.02,0-1.41l1.75-1.75c0.39-0.39,1.02-0.39,1.41,0
	s0.39,1.02,0,1.41l-1.75,1.75C7.23,26.18,6.97,26.28,6.72,26.28z"/>
<path d="M16,30.13c-0.55,0-1-0.45-1-1v-2.47c0-0.55,0.45-1,1-1s1,0.45,1,1v2.47C17,29.68,16.55,30.13,16,30.13z"/>
<path d="M25.28,26.28c-0.26,0-0.51-0.1-0.71-0.29l-1.75-1.75c-0.39-0.39-0.39-1.02,0-1.41s1.02-0.39,1.41,0l1.75,1.75
	c0.39,0.39,0.39,1.02,0,1.41C25.79,26.18,25.54,26.28,25.28,26.28z"/>
<path d="M29.13,17h-2.47c-0.55,0-1-0.45-1-1c0-0.55,0.45-1,1-1h2.47c0.55,0,1,0.45,1,1C30.13,16.55,29.68,17,29.13,17z"/>
<path d="M23.53,9.47c-0.26,0-0.51-0.1-0.71-0.29c-0.39-0.39-0.39-1.02,0-1.41l1.75-1.75c0.39-0.39,1.02-0.39,1.41,0
	s0.39,1.02,0,1.41l-1.75,1.75C24.04,9.37,23.79,9.47,23.53,9.47z"/>
<path d="M108.2,29.12c-5.38,0-10.35-3.2-12.52-8.16c-0.17-0.38-0.08-0.82,0.21-1.11c0.29-0.29,0.73-0.37,1.11-0.21
	c1.66,0.73,3.44,1.06,5.28,0.97c5.84-0.29,10.68-5.09,11.03-10.93c0.11-1.88-0.21-3.7-0.96-5.4c-0.17-0.38-0.08-0.82,0.21-1.11
	s0.73-0.38,1.11-0.21c5.2,2.29,8.47,7.64,8.14,13.32l0,0c-0.4,6.91-5.92,12.41-12.82,12.81C108.72,29.11,108.46,29.12,108.2,29.12z
	 M98.75,22.31c2.3,3.15,6.12,5.02,10.11,4.79c5.89-0.34,10.6-5.04,10.94-10.93l0,0c0.23-4.01-1.63-7.82-4.79-10.13
	c0.27,1.22,0.37,2.48,0.29,3.76c-0.4,6.84-6.08,12.46-12.92,12.81C101.15,22.67,99.93,22.57,98.75,22.31z M120.8,16.23L120.8,16.23
	L120.8,16.23z"/>
<path d="M101.23,17.5c-1.82,0-3.3-1.48-3.3-3.3s1.48-3.3,3.3-3.3s3.3,1.48,3.3,3.3S103.05,17.5,101.23,17.5z M101.23,12.9
	c-0.72,0-1.3,0.58-1.3,1.3c0,0.72,0.58,1.3,1.3,1.3s1.3-0.58,1.3-1.3C102.53,13.49,101.94,12.9,101.23,12.9z"/>
<g>
	<path d="M52.29,12.4c-0.15,0-0.31-0.03-0.45-0.11c-0.49-0.25-0.69-0.85-0.44-1.34c1.14-2.26,2.93-4.07,5.17-5.24
		c0.49-0.26,1.09-0.07,1.35,0.42c0.25,0.49,0.07,1.09-0.42,1.35c-1.86,0.97-3.35,2.48-4.31,4.37C53,12.2,52.65,12.4,52.29,12.4z"/>
	<path d="M69.27,9.01c-0.23,0-0.46-0.08-0.65-0.24c-3.05-2.62-7.57-3.15-11.13-1.28c-0.49,0.26-1.09,0.07-1.35-0.42
		c-0.25-0.49-0.07-1.09,0.42-1.35c1.73-0.9,3.6-1.36,5.54-1.36c2.86,0,5.64,1.03,7.82,2.9c0.42,0.36,0.47,0.99,0.11,1.41
		C69.83,8.89,69.55,9.01,69.27,9.01z"/>
	<path d="M62.11,28.36c-6.62,0-12.01-5.39-12.01-12.01c0-1.89,0.44-3.71,1.3-5.41c0.25-0.49,0.85-0.69,1.34-0.44
		c0.49,0.25,0.69,0.85,0.44,1.34c-0.72,1.42-1.08,2.93-1.08,4.51c0,5.52,4.49,10.01,10.01,10.01c3.28,0,6.36-1.62,8.24-4.33
		c0.31-0.46,0.94-0.57,1.39-0.25c0.46,0.31,0.57,0.94,0.25,1.39C69.74,26.42,66.04,28.36,62.11,28.36z"/>
	<path d="M71.16,23.6c-0.2,0-0.39-0.06-0.57-0.18c-0.46-0.31-0.57-0.94-0.25-1.39c1.16-1.68,1.77-3.64,1.77-5.68
		c0-2.92-1.27-5.68-3.5-7.59c-0.42-0.36-0.47-0.99-0.11-1.41c0.36-0.42,0.99-0.47,1.41-0.11c2.67,2.29,4.19,5.61,4.19,9.11
		c0,2.45-0.74,4.8-2.13,6.82C71.79,23.45,71.48,23.6,71.16,23.6z"/>
	<path d="M60.46,26.25c-0.68,0-0.95-0.23-1.05-0.32c-0.34-0.29-0.49-0.66-0.59-0.9c-0.39-0.94-0.79-1.91-1.02-2.96
		c-0.09-0.41-0.44-1.25-0.66-1.64c-0.1,0.01-0.24,0.03-0.33,0.05c-0.42,0.07-1.07,0.18-1.52-0.33c-0.16-0.18-0.41-0.57-0.23-1.18
		c0.03-0.09,0.09-0.27,0.18-0.47c0.03-0.08,0.08-0.2,0.12-0.31c-0.66-0.48-2.72-3.31-2.85-3.52c-0.59-0.93-0.99-1.97-1.2-3.08
		c-0.1-0.54,0.26-1.06,0.8-1.17c0.54-0.11,1.06,0.26,1.17,0.8c0.16,0.85,0.48,1.67,0.92,2.38c0.25,0.39,1.99,2.67,2.35,2.98
		c0.15,0.09,0.78,0.51,0.89,1.28c0.03,0.18,0,0.37-0.05,0.58c0.28,0.02,0.57,0.08,0.85,0.25c0.86,0.53,1.52,2.94,1.53,2.96
		c0.14,0.66,0.39,1.33,0.65,1.99c0-0.01,0.01-0.03,0.01-0.04c0.19-0.7,0.62-1.14,1.3-1.33c0.06-0.02,0.16-0.04,0.27-0.06
		c0.02,0,0.04-0.01,0.06-0.01c0.04-0.1,0.07-0.23,0.11-0.44c0.03-0.12,0.05-0.24,0.08-0.36c0.16-0.63,0.48-1.02,0.72-1.3
		c0.18-0.22,0.27-0.33,0.33-0.53l0.05-0.15c0.05-0.15,0.12-0.37,0.16-0.53c-0.08-0.05-0.19-0.12-0.31-0.21
		c-1.93-1.32-2.65-1.64-2.92-1.68l-0.16-0.02c-1.45-0.17-2.26-0.36-2.65-0.93c-0.17-0.25-0.23-0.53-0.27-0.76
		c-0.01,0-0.02-0.01-0.03-0.02c-0.07-0.03-0.14-0.07-0.21-0.1c-0.05-0.02-0.12-0.04-0.19-0.05c-0.34-0.09-1.14-0.3-1.31-1.18
		c-0.17-0.89,0.3-1.8,1.1-2.13c0.23-0.09,0.46-0.13,0.64-0.15c0-0.1,0.01-0.2,0.02-0.3c0.16-1.16,1.21-1.71,1.78-2.01
		c0.58-0.31,0.65-0.47,0.65-0.49h0c-0.01,0-0.07-0.16-0.58-0.51c-0.1-0.07-0.36-0.24-0.46-0.25c-0.02,0-1.82-0.11-2.4-0.96
		c-0.31-0.46-0.19-1.08,0.27-1.39c0.41-0.28,0.95-0.21,1.28,0.13c0.2,0.09,0.73,0.2,0.95,0.22c0.65,0.03,1.16,0.38,1.47,0.58
		c0.41,0.28,1.51,1.01,1.47,2.26c-0.05,1.29-1.3,1.95-1.71,2.17c-0.66,0.35-0.73,0.49-0.73,0.53c-0.01,0.05,0,0.11,0,0.16
		c0,0.29,0,0.77-0.34,1.21c-0.21,0.27-0.48,0.42-0.72,0.5c0.21,0.1,0.48,0.26,0.7,0.54c0.19,0.24,0.26,0.51,0.3,0.74
		c0.21,0.05,0.58,0.12,1.22,0.2l0.19,0.02c0.88,0.11,2.16,0.89,3.79,2.01c0.15,0.1,0.26,0.18,0.31,0.21
		c1.33,0.61,0.83,2.14,0.61,2.8l-0.04,0.14c-0.18,0.57-0.48,0.93-0.7,1.19c-0.18,0.22-0.27,0.33-0.32,0.53
		c-0.02,0.08-0.04,0.17-0.05,0.25c-0.08,0.42-0.21,1.04-0.75,1.6c-0.29,0.29-0.67,0.36-1.01,0.42c0,0.01,0,0.01,0,0.02
		c0.02,0.32,0.07,0.91-0.35,1.49c-0.29,0.4-0.78,0.51-1.13,0.55C60.74,26.24,60.59,26.25,60.46,26.25z M60.77,24.22L60.77,24.22
		L60.77,24.22z M62.23,22.16L62.23,22.16L62.23,22.16z M63.72,19.02C63.72,19.03,63.72,19.03,63.72,19.02
		C63.72,19.03,63.72,19.03,63.72,19.02z M55.52,18.3L55.52,18.3L55.52,18.3z"/>
	<path d="M71.17,23.6c-0.33,0-0.65-0.16-0.84-0.45l-0.27-0.41c-0.46-0.68-0.99-1.46-1.16-2.42c-0.08-0.47-0.07-0.92-0.06-1.31
		c0.01-0.25,0.02-0.51-0.01-0.76c-0.04-0.37-0.22-0.63-0.3-0.65c-0.04-0.01-0.15-0.01-0.23-0.01c-0.13,0-0.23,0-0.34-0.01
		c-1.08-0.08-2.05-0.82-2.42-1.85c-0.36-1.01-0.08-2.19,0.68-2.95c0.06-0.06,0.13-0.12,0.2-0.18c-0.34-0.59-0.28-1.39,0.2-1.98
		c0.38-0.47,0.91-0.69,1.33-0.83l0.17-0.06c0.1-0.03,0.19-0.06,0.27-0.09c-0.06-0.09-0.13-0.2-0.18-0.33c-0.3-0.66-0.15-1.47,0.37-2
		c0.38-0.4,1.02-0.41,1.41-0.03c0.37,0.35,0.41,0.91,0.11,1.31c0.01,0.01,0.02,0.02,0.02,0.03c0.16,0.22,0.43,0.58,0.44,1.09
		c0.02,0.56-0.28,1.09-0.8,1.45c-0.33,0.23-0.68,0.35-0.97,0.44c0.18,0.07,0.37,0.17,0.54,0.31c0.28,0.24,0.41,0.62,0.32,0.98
		c-0.08,0.36-0.36,0.65-0.72,0.74c-0.58,0.15-1.04,0.28-1.3,0.54c-0.22,0.22-0.3,0.58-0.2,0.86c0.1,0.28,0.39,0.5,0.68,0.52
		c0.06,0,0.13,0,0.19,0c0.18,0,0.41,0,0.66,0.05c1,0.22,1.74,1.16,1.87,2.4c0.04,0.34,0.03,0.68,0.02,1.02
		c-0.01,0.33-0.02,0.64,0.03,0.91c0.1,0.54,0.46,1.08,0.85,1.65c0.1,0.15,0.2,0.29,0.3,0.44c0.3,0.46,0.17,1.08-0.29,1.38
		C71.54,23.55,71.35,23.6,71.17,23.6z"/>
</g>
<circle class="st0" cx="16" cy="-26.55" r="6.8"/>
<line class="st0" x1="16" y1="-37.21" x2="16" y2="-39.68"/>
<line class="st0" x1="8.47" y1="-34.08" x2="6.72" y2="-35.83"/>
<line class="st1" x1="5.35" y1="-26.55" x2="2.87" y2="-26.55"/>
<line class="st0" x1="8.47" y1="-19.02" x2="6.72" y2="-17.27"/>
<line class="st0" x1="16" y1="-15.9" x2="16" y2="-13.42"/>
<line class="st0" x1="23.53" y1="-19.02" x2="25.28" y2="-17.27"/>
<line class="st0" x1="26.65" y1="-26.55" x2="29.13" y2="-26.55"/>
<line class="st0" x1="23.53" y1="-34.08" x2="25.28" y2="-35.83"/>
<path class="st0" d="M120.8-26.32c-0.37,6.35-5.53,11.5-11.88,11.87c-5.49,0.32-10.28-2.88-12.33-7.54
	c1.74,0.77,3.69,1.15,5.74,1.05c6.39-0.32,11.6-5.48,11.97-11.87c0.12-2.09-0.26-4.08-1.04-5.86
	C117.93-36.62,121.12-31.82,120.8-26.32z"/>
<circle class="st0" cx="101.23" cy="-28.35" r="2.3"/>
<g>
	<path class="st0" d="M52.29-31.15c1.04-2.05,2.7-3.74,4.74-4.8"/>
	<path class="st0" d="M57.02-35.96c1.52-0.79,3.25-1.25,5.08-1.25c2.74,0,5.24,1.01,7.16,2.66"/>
	<path class="st0" d="M52.29-31.15c-0.75,1.49-1.19,3.17-1.19,4.96c0,6.08,4.93,11.01,11.01,11.01c3.76,0,7.07-1.89,9.06-4.76"/>
	<path class="st0" d="M69.27-34.54c2.35,2.02,3.84,5.01,3.84,8.35c0,2.32-0.72,4.47-1.95,6.25"/>
	<path class="st0" d="M52.29-31.15c0.18,0.97,0.54,1.9,1.06,2.73c0.27,0.42,2.24,3.01,2.59,3.24c0.23,0.15,0.46,0.35,0.5,0.62
		c0.03,0.21-0.37,1.03-0.43,1.24c-0.2,0.7,1.08-0.08,1.69,0.3c0.3,0.18,0.94,1.7,1.07,2.32c0.21,0.96,0.59,1.88,0.96,2.79
		c0.08,0.19,0.16,0.39,0.32,0.53c0.16,0.13,1.04,0.07,1.14-0.08c0.32-0.45,0.08-0.9,0.18-1.25c0.09-0.35,0.26-0.53,0.6-0.63
		c0.14-0.04,0.58-0.08,0.68-0.18c0.43-0.44,0.43-0.95,0.55-1.39c0.21-0.82,0.78-0.97,1.03-1.77c0.21-0.67,0.53-1.46-0.11-1.76
		c-0.18-0.08-2.7-1.97-3.74-2.1c-0.41-0.05-1.89-0.19-2.12-0.53c-0.12-0.17-0.11-0.64-0.24-0.8c-0.16-0.2-0.41-0.28-0.64-0.39
		c-0.36-0.19-0.9-0.14-0.98-0.54c-0.08-0.4,0.12-0.86,0.5-1.01c0.38-0.15,0.89-0.02,1.14-0.34c0.19-0.24,0.1-0.59,0.14-0.89
		c0.09-0.61,0.71-0.98,1.26-1.27c0.55-0.29,1.16-0.7,1.18-1.32c0.02-0.6-0.52-1.05-1.02-1.39c-0.3-0.2-0.62-0.4-0.97-0.42
		c-0.2-0.01-1.39-0.19-1.61-0.52"/>
	<path class="st0" d="M69.27-34.54c-0.23,0.23-0.31,0.6-0.17,0.9c0.13,0.29,0.44,0.52,0.45,0.84c0.01,0.24-0.17,0.46-0.37,0.6
		c-0.28,0.19-0.62,0.28-0.94,0.39c-0.32,0.11-0.65,0.25-0.87,0.51c-0.21,0.26-0.27,0.68-0.04,0.94c0.32,0.36,0.97,0.18,1.33,0.5
		c-0.63,0.16-1.3,0.34-1.76,0.8c-0.49,0.48-0.67,1.26-0.44,1.9c0.23,0.65,0.86,1.14,1.55,1.19c0.24,0.02,0.48-0.01,0.72,0.04
		c0.65,0.14,1.01,0.86,1.08,1.53c0.07,0.66-0.06,1.34,0.06,2c0.16,0.92,0.77,1.67,1.29,2.46"/>
</g>
</svg>
